<?xml version="1.0" encoding="utf-8" standalone="no"?>
<!DOCTYPE svg PUBLIC "-//W3C//DTD SVG 1.1//EN"
  "http://www.w3.org/Graphics/SVG/1.1/DTD/svg11.dtd">
<svg xmlns:xlink="http://www.w3.org/1999/xlink" width="1152pt" height="432pt" viewBox="0 0 1152 432" xmlns="http://www.w3.org/2000/svg" version="1.1">
 <metadata>
  <rdf:RDF xmlns:dc="http://purl.org/dc/elements/1.1/" xmlns:cc="http://creativecommons.org/ns#" xmlns:rdf="http://www.w3.org/1999/02/22-rdf-syntax-ns#">
   <cc:Work>
    <dc:type rdf:resource="http://purl.org/dc/dcmitype/StillImage"/>
    <dc:date>2026-05-24T00:57:17.097969</dc:date>
    <dc:format>image/svg+xml</dc:format>
    <dc:creator>
     <cc:Agent>
      <dc:title>Matplotlib v3.9.4, https://matplotlib.org/</dc:title>
     </cc:Agent>
    </dc:creator>
   </cc:Work>
  </rdf:RDF>
 </metadata>
 <defs>
  <style type="text/css">*{stroke-linejoin: round; stroke-linecap: butt}</style>
 </defs>
 <g id="figure_1">
  <g id="patch_1">
   <path d="M 0 432 
L 1152 432 
L 1152 0 
L 0 0 
z
" style="fill: #ffffff"/>
  </g>
  <g id="axes_1">
   <g id="patch_2">
    <path d="M 171.7 390.04 
L 1141.2 390.04 
L 1141.2 26.88 
L 171.7 26.88 
z
" style="fill: #ffffff"/>
   </g>
   <g id="matplotlib.axis_1">
    <g id="xtick_1">
     <g id="line2d_1">
      <path d="M 187.911611 390.04 
L 187.911611 26.88 
" clip-path="url(#p7d53cf1326)" style="fill: none; stroke: #b0b0b0; stroke-opacity: 0.25; stroke-width: 0.8; stroke-linecap: square"/>
     </g>
     <g id="line2d_2">
      <defs>
       <path id="m5e637829c4" d="M 0 0 
L 0 3.5 
" style="stroke: #000000; stroke-width: 0.8"/>
      </defs>
      <g>
       <use xlink:href="#m5e637829c4" x="187.911611" y="390.04" style="stroke: #000000; stroke-width: 0.8"/>
      </g>
     </g>
     <g id="text_1">
      <!-- −200 -->
      <g transform="translate(174.178017 404.638438) scale(0.1 -0.1)">
       <defs>
        <path id="DejaVuSans-2212" d="M 678 2272 
L 4684 2272 
L 4684 1741 
L 678 1741 
L 678 2272 
z
" transform="scale(0.015625)"/>
        <path id="DejaVuSans-32" d="M 1228 531 
L 3431 531 
L 3431 0 
L 469 0 
L 469 531 
Q 828 903 1448 1529 
Q 2069 2156 2228 2338 
Q 2531 2678 2651 2914 
Q 2772 3150 2772 3378 
Q 2772 3750 2511 3984 
Q 2250 4219 1831 4219 
Q 1534 4219 1204 4116 
Q 875 4013 500 3803 
L 500 4441 
Q 881 4594 1212 4672 
Q 1544 4750 1819 4750 
Q 2544 4750 2975 4387 
Q 3406 4025 3406 3419 
Q 3406 3131 3298 2873 
Q 3191 2616 2906 2266 
Q 2828 2175 2409 1742 
Q 1991 1309 1228 531 
z
" transform="scale(0.015625)"/>
        <path id="DejaVuSans-30" d="M 2034 4250 
Q 1547 4250 1301 3770 
Q 1056 3291 1056 2328 
Q 1056 1369 1301 889 
Q 1547 409 2034 409 
Q 2525 409 2770 889 
Q 3016 1369 3016 2328 
Q 3016 3291 2770 3770 
Q 2525 4250 2034 4250 
z
M 2034 4750 
Q 2819 4750 3233 4129 
Q 3647 3509 3647 2328 
Q 3647 1150 3233 529 
Q 2819 -91 2034 -91 
Q 1250 -91 836 529 
Q 422 1150 422 2328 
Q 422 3509 836 4129 
Q 1250 4750 2034 4750 
z
" transform="scale(0.015625)"/>
       </defs>
       <use xlink:href="#DejaVuSans-2212"/>
       <use xlink:href="#DejaVuSans-32" x="83.789062"/>
       <use xlink:href="#DejaVuSans-30" x="147.412109"/>
       <use xlink:href="#DejaVuSans-30" x="211.035156"/>
      </g>
     </g>
    </g>
    <g id="xtick_2">
     <g id="line2d_3">
      <path d="M 302.077885 390.04 
L 302.077885 26.88 
" clip-path="url(#p7d53cf1326)" style="fill: none; stroke: #b0b0b0; stroke-opacity: 0.25; stroke-width: 0.8; stroke-linecap: square"/>
     </g>
     <g id="line2d_4">
      <g>
       <use xlink:href="#m5e637829c4" x="302.077885" y="390.04" style="stroke: #000000; stroke-width: 0.8"/>
      </g>
     </g>
     <g id="text_2">
      <!-- −100 -->
      <g transform="translate(288.344291 404.638438) scale(0.1 -0.1)">
       <defs>
        <path id="DejaVuSans-31" d="M 794 531 
L 1825 531 
L 1825 4091 
L 703 3866 
L 703 4441 
L 1819 4666 
L 2450 4666 
L 2450 531 
L 3481 531 
L 3481 0 
L 794 0 
L 794 531 
z
" transform="scale(0.015625)"/>
       </defs>
       <use xlink:href="#DejaVuSans-2212"/>
       <use xlink:href="#DejaVuSans-31" x="83.789062"/>
       <use xlink:href="#DejaVuSans-30" x="147.412109"/>
       <use xlink:href="#DejaVuSans-30" x="211.035156"/>
      </g>
     </g>
    </g>
    <g id="xtick_3">
     <g id="line2d_5">
      <path d="M 416.244159 390.04 
L 416.244159 26.88 
" clip-path="url(#p7d53cf1326)" style="fill: none; stroke: #b0b0b0; stroke-opacity: 0.25; stroke-width: 0.8; stroke-linecap: square"/>
     </g>
     <g id="line2d_6">
      <g>
       <use xlink:href="#m5e637829c4" x="416.244159" y="390.04" style="stroke: #000000; stroke-width: 0.8"/>
      </g>
     </g>
     <g id="text_3">
      <!-- 0 -->
      <g transform="translate(413.062909 404.638438) scale(0.1 -0.1)">
       <use xlink:href="#DejaVuSans-30"/>
      </g>
     </g>
    </g>
    <g id="xtick_4">
     <g id="line2d_7">
      <path d="M 530.410433 390.04 
L 530.410433 26.88 
" clip-path="url(#p7d53cf1326)" style="fill: none; stroke: #b0b0b0; stroke-opacity: 0.25; stroke-width: 0.8; stroke-linecap: square"/>
     </g>
     <g id="line2d_8">
      <g>
       <use xlink:href="#m5e637829c4" x="530.410433" y="390.04" style="stroke: #000000; stroke-width: 0.8"/>
      </g>
     </g>
     <g id="text_4">
      <!-- 100 -->
      <g transform="translate(520.866683 404.638438) scale(0.1 -0.1)">
       <use xlink:href="#DejaVuSans-31"/>
       <use xlink:href="#DejaVuSans-30" x="63.623047"/>
       <use xlink:href="#DejaVuSans-30" x="127.246094"/>
      </g>
     </g>
    </g>
    <g id="xtick_5">
     <g id="line2d_9">
      <path d="M 644.576707 390.04 
L 644.576707 26.88 
" clip-path="url(#p7d53cf1326)" style="fill: none; stroke: #b0b0b0; stroke-opacity: 0.25; stroke-width: 0.8; stroke-linecap: square"/>
     </g>
     <g id="line2d_10">
      <g>
       <use xlink:href="#m5e637829c4" x="644.576707" y="390.04" style="stroke: #000000; stroke-width: 0.8"/>
      </g>
     </g>
     <g id="text_5">
      <!-- 200 -->
      <g transform="translate(635.032957 404.638438) scale(0.1 -0.1)">
       <use xlink:href="#DejaVuSans-32"/>
       <use xlink:href="#DejaVuSans-30" x="63.623047"/>
       <use xlink:href="#DejaVuSans-30" x="127.246094"/>
      </g>
     </g>
    </g>
    <g id="xtick_6">
     <g id="line2d_11">
      <path d="M 758.742982 390.04 
L 758.742982 26.88 
" clip-path="url(#p7d53cf1326)" style="fill: none; stroke: #b0b0b0; stroke-opacity: 0.25; stroke-width: 0.8; stroke-linecap: square"/>
     </g>
     <g id="line2d_12">
      <g>
       <use xlink:href="#m5e637829c4" x="758.742982" y="390.04" style="stroke: #000000; stroke-width: 0.8"/>
      </g>
     </g>
     <g id="text_6">
      <!-- 300 -->
      <g transform="translate(749.199232 404.638438) scale(0.1 -0.1)">
       <defs>
        <path id="DejaVuSans-33" d="M 2597 2516 
Q 3050 2419 3304 2112 
Q 3559 1806 3559 1356 
Q 3559 666 3084 287 
Q 2609 -91 1734 -91 
Q 1441 -91 1130 -33 
Q 819 25 488 141 
L 488 750 
Q 750 597 1062 519 
Q 1375 441 1716 441 
Q 2309 441 2620 675 
Q 2931 909 2931 1356 
Q 2931 1769 2642 2001 
Q 2353 2234 1838 2234 
L 1294 2234 
L 1294 2753 
L 1863 2753 
Q 2328 2753 2575 2939 
Q 2822 3125 2822 3475 
Q 2822 3834 2567 4026 
Q 2313 4219 1838 4219 
Q 1578 4219 1281 4162 
Q 984 4106 628 3988 
L 628 4550 
Q 988 4650 1302 4700 
Q 1616 4750 1894 4750 
Q 2613 4750 3031 4423 
Q 3450 4097 3450 3541 
Q 3450 3153 3228 2886 
Q 3006 2619 2597 2516 
z
" transform="scale(0.015625)"/>
       </defs>
       <use xlink:href="#DejaVuSans-33"/>
       <use xlink:href="#DejaVuSans-30" x="63.623047"/>
       <use xlink:href="#DejaVuSans-30" x="127.246094"/>
      </g>
     </g>
    </g>
    <g id="xtick_7">
     <g id="line2d_13">
      <path d="M 872.909256 390.04 
L 872.909256 26.88 
" clip-path="url(#p7d53cf1326)" style="fill: none; stroke: #b0b0b0; stroke-opacity: 0.25; stroke-width: 0.8; stroke-linecap: square"/>
     </g>
     <g id="line2d_14">
      <g>
       <use xlink:href="#m5e637829c4" x="872.909256" y="390.04" style="stroke: #000000; stroke-width: 0.8"/>
      </g>
     </g>
     <g id="text_7">
      <!-- 400 -->
      <g transform="translate(863.365506 404.638438) scale(0.1 -0.1)">
       <defs>
        <path id="DejaVuSans-34" d="M 2419 4116 
L 825 1625 
L 2419 1625 
L 2419 4116 
z
M 2253 4666 
L 3047 4666 
L 3047 1625 
L 3713 1625 
L 3713 1100 
L 3047 1100 
L 3047 0 
L 2419 0 
L 2419 1100 
L 313 1100 
L 313 1709 
L 2253 4666 
z
" transform="scale(0.015625)"/>
       </defs>
       <use xlink:href="#DejaVuSans-34"/>
       <use xlink:href="#DejaVuSans-30" x="63.623047"/>
       <use xlink:href="#DejaVuSans-30" x="127.246094"/>
      </g>
     </g>
    </g>
    <g id="xtick_8">
     <g id="line2d_15">
      <path d="M 987.07553 390.04 
L 987.07553 26.88 
" clip-path="url(#p7d53cf1326)" style="fill: none; stroke: #b0b0b0; stroke-opacity: 0.25; stroke-width: 0.8; stroke-linecap: square"/>
     </g>
     <g id="line2d_16">
      <g>
       <use xlink:href="#m5e637829c4" x="987.07553" y="390.04" style="stroke: #000000; stroke-width: 0.8"/>
      </g>
     </g>
     <g id="text_8">
      <!-- 500 -->
      <g transform="translate(977.53178 404.638438) scale(0.1 -0.1)">
       <defs>
        <path id="DejaVuSans-35" d="M 691 4666 
L 3169 4666 
L 3169 4134 
L 1269 4134 
L 1269 2991 
Q 1406 3038 1543 3061 
Q 1681 3084 1819 3084 
Q 2600 3084 3056 2656 
Q 3513 2228 3513 1497 
Q 3513 744 3044 326 
Q 2575 -91 1722 -91 
Q 1428 -91 1123 -41 
Q 819 9 494 109 
L 494 744 
Q 775 591 1075 516 
Q 1375 441 1709 441 
Q 2250 441 2565 725 
Q 2881 1009 2881 1497 
Q 2881 1984 2565 2268 
Q 2250 2553 1709 2553 
Q 1456 2553 1204 2497 
Q 953 2441 691 2322 
L 691 4666 
z
" transform="scale(0.015625)"/>
       </defs>
       <use xlink:href="#DejaVuSans-35"/>
       <use xlink:href="#DejaVuSans-30" x="63.623047"/>
       <use xlink:href="#DejaVuSans-30" x="127.246094"/>
      </g>
     </g>
    </g>
    <g id="xtick_9">
     <g id="line2d_17">
      <path d="M 1101.241804 390.04 
L 1101.241804 26.88 
" clip-path="url(#p7d53cf1326)" style="fill: none; stroke: #b0b0b0; stroke-opacity: 0.25; stroke-width: 0.8; stroke-linecap: square"/>
     </g>
     <g id="line2d_18">
      <g>
       <use xlink:href="#m5e637829c4" x="1101.241804" y="390.04" style="stroke: #000000; stroke-width: 0.8"/>
      </g>
     </g>
     <g id="text_9">
      <!-- 600 -->
      <g transform="translate(1091.698054 404.638438) scale(0.1 -0.1)">
       <defs>
        <path id="DejaVuSans-36" d="M 2113 2584 
Q 1688 2584 1439 2293 
Q 1191 2003 1191 1497 
Q 1191 994 1439 701 
Q 1688 409 2113 409 
Q 2538 409 2786 701 
Q 3034 994 3034 1497 
Q 3034 2003 2786 2293 
Q 2538 2584 2113 2584 
z
M 3366 4563 
L 3366 3988 
Q 3128 4100 2886 4159 
Q 2644 4219 2406 4219 
Q 1781 4219 1451 3797 
Q 1122 3375 1075 2522 
Q 1259 2794 1537 2939 
Q 1816 3084 2150 3084 
Q 2853 3084 3261 2657 
Q 3669 2231 3669 1497 
Q 3669 778 3244 343 
Q 2819 -91 2113 -91 
Q 1303 -91 875 529 
Q 447 1150 447 2328 
Q 447 3434 972 4092 
Q 1497 4750 2381 4750 
Q 2619 4750 2861 4703 
Q 3103 4656 3366 4563 
z
" transform="scale(0.015625)"/>
       </defs>
       <use xlink:href="#DejaVuSans-36"/>
       <use xlink:href="#DejaVuSans-30" x="63.623047"/>
       <use xlink:href="#DejaVuSans-30" x="127.246094"/>
      </g>
     </g>
    </g>
    <g id="text_10">
     <!-- Mean paired score drop vs baseline -->
     <g transform="translate(567.769531 418.316562) scale(0.1 -0.1)">
      <defs>
       <path id="DejaVuSans-4d" d="M 628 4666 
L 1569 4666 
L 2759 1491 
L 3956 4666 
L 4897 4666 
L 4897 0 
L 4281 0 
L 4281 4097 
L 3078 897 
L 2444 897 
L 1241 4097 
L 1241 0 
L 628 0 
L 628 4666 
z
" transform="scale(0.015625)"/>
       <path id="DejaVuSans-65" d="M 3597 1894 
L 3597 1613 
L 953 1613 
Q 991 1019 1311 708 
Q 1631 397 2203 397 
Q 2534 397 2845 478 
Q 3156 559 3463 722 
L 3463 178 
Q 3153 47 2828 -22 
Q 2503 -91 2169 -91 
Q 1331 -91 842 396 
Q 353 884 353 1716 
Q 353 2575 817 3079 
Q 1281 3584 2069 3584 
Q 2775 3584 3186 3129 
Q 3597 2675 3597 1894 
z
M 3022 2063 
Q 3016 2534 2758 2815 
Q 2500 3097 2075 3097 
Q 1594 3097 1305 2825 
Q 1016 2553 972 2059 
L 3022 2063 
z
" transform="scale(0.015625)"/>
       <path id="DejaVuSans-61" d="M 2194 1759 
Q 1497 1759 1228 1600 
Q 959 1441 959 1056 
Q 959 750 1161 570 
Q 1363 391 1709 391 
Q 2188 391 2477 730 
Q 2766 1069 2766 1631 
L 2766 1759 
L 2194 1759 
z
M 3341 1997 
L 3341 0 
L 2766 0 
L 2766 531 
Q 2569 213 2275 61 
Q 1981 -91 1556 -91 
Q 1019 -91 701 211 
Q 384 513 384 1019 
Q 384 1609 779 1909 
Q 1175 2209 1959 2209 
L 2766 2209 
L 2766 2266 
Q 2766 2663 2505 2880 
Q 2244 3097 1772 3097 
Q 1472 3097 1187 3025 
Q 903 2953 641 2809 
L 641 3341 
Q 956 3463 1253 3523 
Q 1550 3584 1831 3584 
Q 2591 3584 2966 3190 
Q 3341 2797 3341 1997 
z
" transform="scale(0.015625)"/>
       <path id="DejaVuSans-6e" d="M 3513 2113 
L 3513 0 
L 2938 0 
L 2938 2094 
Q 2938 2591 2744 2837 
Q 2550 3084 2163 3084 
Q 1697 3084 1428 2787 
Q 1159 2491 1159 1978 
L 1159 0 
L 581 0 
L 581 3500 
L 1159 3500 
L 1159 2956 
Q 1366 3272 1645 3428 
Q 1925 3584 2291 3584 
Q 2894 3584 3203 3211 
Q 3513 2838 3513 2113 
z
" transform="scale(0.015625)"/>
       <path id="DejaVuSans-20" transform="scale(0.015625)"/>
       <path id="DejaVuSans-70" d="M 1159 525 
L 1159 -1331 
L 581 -1331 
L 581 3500 
L 1159 3500 
L 1159 2969 
Q 1341 3281 1617 3432 
Q 1894 3584 2278 3584 
Q 2916 3584 3314 3078 
Q 3713 2572 3713 1747 
Q 3713 922 3314 415 
Q 2916 -91 2278 -91 
Q 1894 -91 1617 61 
Q 1341 213 1159 525 
z
M 3116 1747 
Q 3116 2381 2855 2742 
Q 2594 3103 2138 3103 
Q 1681 3103 1420 2742 
Q 1159 2381 1159 1747 
Q 1159 1113 1420 752 
Q 1681 391 2138 391 
Q 2594 391 2855 752 
Q 3116 1113 3116 1747 
z
" transform="scale(0.015625)"/>
       <path id="DejaVuSans-69" d="M 603 3500 
L 1178 3500 
L 1178 0 
L 603 0 
L 603 3500 
z
M 603 4863 
L 1178 4863 
L 1178 4134 
L 603 4134 
L 603 4863 
z
" transform="scale(0.015625)"/>
       <path id="DejaVuSans-72" d="M 2631 2963 
Q 2534 3019 2420 3045 
Q 2306 3072 2169 3072 
Q 1681 3072 1420 2755 
Q 1159 2438 1159 1844 
L 1159 0 
L 581 0 
L 581 3500 
L 1159 3500 
L 1159 2956 
Q 1341 3275 1631 3429 
Q 1922 3584 2338 3584 
Q 2397 3584 2469 3576 
Q 2541 3569 2628 3553 
L 2631 2963 
z
" transform="scale(0.015625)"/>
       <path id="DejaVuSans-64" d="M 2906 2969 
L 2906 4863 
L 3481 4863 
L 3481 0 
L 2906 0 
L 2906 525 
Q 2725 213 2448 61 
Q 2172 -91 1784 -91 
Q 1150 -91 751 415 
Q 353 922 353 1747 
Q 353 2572 751 3078 
Q 1150 3584 1784 3584 
Q 2172 3584 2448 3432 
Q 2725 3281 2906 2969 
z
M 947 1747 
Q 947 1113 1208 752 
Q 1469 391 1925 391 
Q 2381 391 2643 752 
Q 2906 1113 2906 1747 
Q 2906 2381 2643 2742 
Q 2381 3103 1925 3103 
Q 1469 3103 1208 2742 
Q 947 2381 947 1747 
z
" transform="scale(0.015625)"/>
       <path id="DejaVuSans-73" d="M 2834 3397 
L 2834 2853 
Q 2591 2978 2328 3040 
Q 2066 3103 1784 3103 
Q 1356 3103 1142 2972 
Q 928 2841 928 2578 
Q 928 2378 1081 2264 
Q 1234 2150 1697 2047 
L 1894 2003 
Q 2506 1872 2764 1633 
Q 3022 1394 3022 966 
Q 3022 478 2636 193 
Q 2250 -91 1575 -91 
Q 1294 -91 989 -36 
Q 684 19 347 128 
L 347 722 
Q 666 556 975 473 
Q 1284 391 1588 391 
Q 1994 391 2212 530 
Q 2431 669 2431 922 
Q 2431 1156 2273 1281 
Q 2116 1406 1581 1522 
L 1381 1569 
Q 847 1681 609 1914 
Q 372 2147 372 2553 
Q 372 3047 722 3315 
Q 1072 3584 1716 3584 
Q 2034 3584 2315 3537 
Q 2597 3491 2834 3397 
z
" transform="scale(0.015625)"/>
       <path id="DejaVuSans-63" d="M 3122 3366 
L 3122 2828 
Q 2878 2963 2633 3030 
Q 2388 3097 2138 3097 
Q 1578 3097 1268 2742 
Q 959 2388 959 1747 
Q 959 1106 1268 751 
Q 1578 397 2138 397 
Q 2388 397 2633 464 
Q 2878 531 3122 666 
L 3122 134 
Q 2881 22 2623 -34 
Q 2366 -91 2075 -91 
Q 1284 -91 818 406 
Q 353 903 353 1747 
Q 353 2603 823 3093 
Q 1294 3584 2113 3584 
Q 2378 3584 2631 3529 
Q 2884 3475 3122 3366 
z
" transform="scale(0.015625)"/>
       <path id="DejaVuSans-6f" d="M 1959 3097 
Q 1497 3097 1228 2736 
Q 959 2375 959 1747 
Q 959 1119 1226 758 
Q 1494 397 1959 397 
Q 2419 397 2687 759 
Q 2956 1122 2956 1747 
Q 2956 2369 2687 2733 
Q 2419 3097 1959 3097 
z
M 1959 3584 
Q 2709 3584 3137 3096 
Q 3566 2609 3566 1747 
Q 3566 888 3137 398 
Q 2709 -91 1959 -91 
Q 1206 -91 779 398 
Q 353 888 353 1747 
Q 353 2609 779 3096 
Q 1206 3584 1959 3584 
z
" transform="scale(0.015625)"/>
       <path id="DejaVuSans-76" d="M 191 3500 
L 800 3500 
L 1894 563 
L 2988 3500 
L 3597 3500 
L 2284 0 
L 1503 0 
L 191 3500 
z
" transform="scale(0.015625)"/>
       <path id="DejaVuSans-62" d="M 3116 1747 
Q 3116 2381 2855 2742 
Q 2594 3103 2138 3103 
Q 1681 3103 1420 2742 
Q 1159 2381 1159 1747 
Q 1159 1113 1420 752 
Q 1681 391 2138 391 
Q 2594 391 2855 752 
Q 3116 1113 3116 1747 
z
M 1159 2969 
Q 1341 3281 1617 3432 
Q 1894 3584 2278 3584 
Q 2916 3584 3314 3078 
Q 3713 2572 3713 1747 
Q 3713 922 3314 415 
Q 2916 -91 2278 -91 
Q 1894 -91 1617 61 
Q 1341 213 1159 525 
L 1159 0 
L 581 0 
L 581 4863 
L 1159 4863 
L 1159 2969 
z
" transform="scale(0.015625)"/>
       <path id="DejaVuSans-6c" d="M 603 4863 
L 1178 4863 
L 1178 0 
L 603 0 
L 603 4863 
z
" transform="scale(0.015625)"/>
      </defs>
      <use xlink:href="#DejaVuSans-4d"/>
      <use xlink:href="#DejaVuSans-65" x="86.279297"/>
      <use xlink:href="#DejaVuSans-61" x="147.802734"/>
      <use xlink:href="#DejaVuSans-6e" x="209.082031"/>
      <use xlink:href="#DejaVuSans-20" x="272.460938"/>
      <use xlink:href="#DejaVuSans-70" x="304.248047"/>
      <use xlink:href="#DejaVuSans-61" x="367.724609"/>
      <use xlink:href="#DejaVuSans-69" x="429.003906"/>
      <use xlink:href="#DejaVuSans-72" x="456.787109"/>
      <use xlink:href="#DejaVuSans-65" x="495.650391"/>
      <use xlink:href="#DejaVuSans-64" x="557.173828"/>
      <use xlink:href="#DejaVuSans-20" x="620.650391"/>
      <use xlink:href="#DejaVuSans-73" x="652.4375"/>
      <use xlink:href="#DejaVuSans-63" x="704.537109"/>
      <use xlink:href="#DejaVuSans-6f" x="759.517578"/>
      <use xlink:href="#DejaVuSans-72" x="820.699219"/>
      <use xlink:href="#DejaVuSans-65" x="859.5625"/>
      <use xlink:href="#DejaVuSans-20" x="921.085938"/>
      <use xlink:href="#DejaVuSans-64" x="952.873047"/>
      <use xlink:href="#DejaVuSans-72" x="1016.349609"/>
      <use xlink:href="#DejaVuSans-6f" x="1055.212891"/>
      <use xlink:href="#DejaVuSans-70" x="1116.394531"/>
      <use xlink:href="#DejaVuSans-20" x="1179.871094"/>
      <use xlink:href="#DejaVuSans-76" x="1211.658203"/>
      <use xlink:href="#DejaVuSans-73" x="1270.837891"/>
      <use xlink:href="#DejaVuSans-20" x="1322.9375"/>
      <use xlink:href="#DejaVuSans-62" x="1354.724609"/>
      <use xlink:href="#DejaVuSans-61" x="1418.201172"/>
      <use xlink:href="#DejaVuSans-73" x="1479.480469"/>
      <use xlink:href="#DejaVuSans-65" x="1531.580078"/>
      <use xlink:href="#DejaVuSans-6c" x="1593.103516"/>
      <use xlink:href="#DejaVuSans-69" x="1620.886719"/>
      <use xlink:href="#DejaVuSans-6e" x="1648.669922"/>
      <use xlink:href="#DejaVuSans-65" x="1712.048828"/>
     </g>
    </g>
   </g>
   <g id="matplotlib.axis_2">
    <g id="ytick_1">
     <g id="line2d_19">
      <defs>
       <path id="m2a170d5137" d="M 0 0 
L -3.5 0 
" style="stroke: #000000; stroke-width: 0.8"/>
      </defs>
      <g>
       <use xlink:href="#m2a170d5137" x="171.7" y="369.864444" style="stroke: #000000; stroke-width: 0.8"/>
      </g>
     </g>
     <g id="text_11">
      <!-- fill_height -->
      <g transform="translate(115.970313 373.663663) scale(0.1 -0.1)">
       <defs>
        <path id="DejaVuSans-66" d="M 2375 4863 
L 2375 4384 
L 1825 4384 
Q 1516 4384 1395 4259 
Q 1275 4134 1275 3809 
L 1275 3500 
L 2222 3500 
L 2222 3053 
L 1275 3053 
L 1275 0 
L 697 0 
L 697 3053 
L 147 3053 
L 147 3500 
L 697 3500 
L 697 3744 
Q 697 4328 969 4595 
Q 1241 4863 1831 4863 
L 2375 4863 
z
" transform="scale(0.015625)"/>
        <path id="DejaVuSans-5f" d="M 3263 -1063 
L 3263 -1509 
L -63 -1509 
L -63 -1063 
L 3263 -1063 
z
" transform="scale(0.015625)"/>
        <path id="DejaVuSans-68" d="M 3513 2113 
L 3513 0 
L 2938 0 
L 2938 2094 
Q 2938 2591 2744 2837 
Q 2550 3084 2163 3084 
Q 1697 3084 1428 2787 
Q 1159 2491 1159 1978 
L 1159 0 
L 581 0 
L 581 4863 
L 1159 4863 
L 1159 2956 
Q 1366 3272 1645 3428 
Q 1925 3584 2291 3584 
Q 2894 3584 3203 3211 
Q 3513 2838 3513 2113 
z
" transform="scale(0.015625)"/>
        <path id="DejaVuSans-67" d="M 2906 1791 
Q 2906 2416 2648 2759 
Q 2391 3103 1925 3103 
Q 1463 3103 1205 2759 
Q 947 2416 947 1791 
Q 947 1169 1205 825 
Q 1463 481 1925 481 
Q 2391 481 2648 825 
Q 2906 1169 2906 1791 
z
M 3481 434 
Q 3481 -459 3084 -895 
Q 2688 -1331 1869 -1331 
Q 1566 -1331 1297 -1286 
Q 1028 -1241 775 -1147 
L 775 -588 
Q 1028 -725 1275 -790 
Q 1522 -856 1778 -856 
Q 2344 -856 2625 -561 
Q 2906 -266 2906 331 
L 2906 616 
Q 2728 306 2450 153 
Q 2172 0 1784 0 
Q 1141 0 747 490 
Q 353 981 353 1791 
Q 353 2603 747 3093 
Q 1141 3584 1784 3584 
Q 2172 3584 2450 3431 
Q 2728 3278 2906 2969 
L 2906 3500 
L 3481 3500 
L 3481 434 
z
" transform="scale(0.015625)"/>
        <path id="DejaVuSans-74" d="M 1172 4494 
L 1172 3500 
L 2356 3500 
L 2356 3053 
L 1172 3053 
L 1172 1153 
Q 1172 725 1289 603 
Q 1406 481 1766 481 
L 2356 481 
L 2356 0 
L 1766 0 
Q 1100 0 847 248 
Q 594 497 594 1153 
L 594 3053 
L 172 3053 
L 172 3500 
L 594 3500 
L 594 4494 
L 1172 4494 
z
" transform="scale(0.015625)"/>
       </defs>
       <use xlink:href="#DejaVuSans-66"/>
       <use xlink:href="#DejaVuSans-69" x="35.205078"/>
       <use xlink:href="#DejaVuSans-6c" x="62.988281"/>
       <use xlink:href="#DejaVuSans-6c" x="90.771484"/>
       <use xlink:href="#DejaVuSans-5f" x="118.554688"/>
       <use xlink:href="#DejaVuSans-68" x="168.554688"/>
       <use xlink:href="#DejaVuSans-65" x="231.933594"/>
       <use xlink:href="#DejaVuSans-69" x="293.457031"/>
       <use xlink:href="#DejaVuSans-67" x="321.240234"/>
       <use xlink:href="#DejaVuSans-68" x="384.716797"/>
       <use xlink:href="#DejaVuSans-74" x="448.095703"/>
      </g>
     </g>
    </g>
    <g id="ytick_2">
     <g id="line2d_20">
      <g>
       <use xlink:href="#m2a170d5137" x="171.7" y="329.513333" style="stroke: #000000; stroke-width: 0.8"/>
      </g>
     </g>
     <g id="text_12">
      <!-- height_summary -->
      <g transform="translate(80.639063 333.312552) scale(0.1 -0.1)">
       <defs>
        <path id="DejaVuSans-75" d="M 544 1381 
L 544 3500 
L 1119 3500 
L 1119 1403 
Q 1119 906 1312 657 
Q 1506 409 1894 409 
Q 2359 409 2629 706 
Q 2900 1003 2900 1516 
L 2900 3500 
L 3475 3500 
L 3475 0 
L 2900 0 
L 2900 538 
Q 2691 219 2414 64 
Q 2138 -91 1772 -91 
Q 1169 -91 856 284 
Q 544 659 544 1381 
z
M 1991 3584 
L 1991 3584 
z
" transform="scale(0.015625)"/>
        <path id="DejaVuSans-6d" d="M 3328 2828 
Q 3544 3216 3844 3400 
Q 4144 3584 4550 3584 
Q 5097 3584 5394 3201 
Q 5691 2819 5691 2113 
L 5691 0 
L 5113 0 
L 5113 2094 
Q 5113 2597 4934 2840 
Q 4756 3084 4391 3084 
Q 3944 3084 3684 2787 
Q 3425 2491 3425 1978 
L 3425 0 
L 2847 0 
L 2847 2094 
Q 2847 2600 2669 2842 
Q 2491 3084 2119 3084 
Q 1678 3084 1418 2786 
Q 1159 2488 1159 1978 
L 1159 0 
L 581 0 
L 581 3500 
L 1159 3500 
L 1159 2956 
Q 1356 3278 1631 3431 
Q 1906 3584 2284 3584 
Q 2666 3584 2933 3390 
Q 3200 3197 3328 2828 
z
" transform="scale(0.015625)"/>
        <path id="DejaVuSans-79" d="M 2059 -325 
Q 1816 -950 1584 -1140 
Q 1353 -1331 966 -1331 
L 506 -1331 
L 506 -850 
L 844 -850 
Q 1081 -850 1212 -737 
Q 1344 -625 1503 -206 
L 1606 56 
L 191 3500 
L 800 3500 
L 1894 763 
L 2988 3500 
L 3597 3500 
L 2059 -325 
z
" transform="scale(0.015625)"/>
       </defs>
       <use xlink:href="#DejaVuSans-68"/>
       <use xlink:href="#DejaVuSans-65" x="63.378906"/>
       <use xlink:href="#DejaVuSans-69" x="124.902344"/>
       <use xlink:href="#DejaVuSans-67" x="152.685547"/>
       <use xlink:href="#DejaVuSans-68" x="216.162109"/>
       <use xlink:href="#DejaVuSans-74" x="279.541016"/>
       <use xlink:href="#DejaVuSans-5f" x="318.75"/>
       <use xlink:href="#DejaVuSans-73" x="368.75"/>
       <use xlink:href="#DejaVuSans-75" x="420.849609"/>
       <use xlink:href="#DejaVuSans-6d" x="484.228516"/>
       <use xlink:href="#DejaVuSans-6d" x="581.640625"/>
       <use xlink:href="#DejaVuSans-61" x="679.052734"/>
       <use xlink:href="#DejaVuSans-72" x="740.332031"/>
       <use xlink:href="#DejaVuSans-79" x="781.445312"/>
      </g>
     </g>
    </g>
    <g id="ytick_3">
     <g id="line2d_21">
      <g>
       <use xlink:href="#m2a170d5137" x="171.7" y="289.162222" style="stroke: #000000; stroke-width: 0.8"/>
      </g>
     </g>
     <g id="text_13">
      <!-- hole_summary -->
      <g transform="translate(91.126563 292.961441) scale(0.1 -0.1)">
       <use xlink:href="#DejaVuSans-68"/>
       <use xlink:href="#DejaVuSans-6f" x="63.378906"/>
       <use xlink:href="#DejaVuSans-6c" x="124.560547"/>
       <use xlink:href="#DejaVuSans-65" x="152.34375"/>
       <use xlink:href="#DejaVuSans-5f" x="213.867188"/>
       <use xlink:href="#DejaVuSans-73" x="263.867188"/>
       <use xlink:href="#DejaVuSans-75" x="315.966797"/>
       <use xlink:href="#DejaVuSans-6d" x="379.345703"/>
       <use xlink:href="#DejaVuSans-6d" x="476.757812"/>
       <use xlink:href="#DejaVuSans-61" x="574.169922"/>
       <use xlink:href="#DejaVuSans-72" x="635.449219"/>
       <use xlink:href="#DejaVuSans-79" x="676.5625"/>
      </g>
     </g>
    </g>
    <g id="ytick_4">
     <g id="line2d_22">
      <g>
       <use xlink:href="#m2a170d5137" x="171.7" y="248.811111" style="stroke: #000000; stroke-width: 0.8"/>
      </g>
     </g>
     <g id="text_14">
      <!-- holeyness_col -->
      <g transform="translate(95.089063 252.61033) scale(0.1 -0.1)">
       <use xlink:href="#DejaVuSans-68"/>
       <use xlink:href="#DejaVuSans-6f" x="63.378906"/>
       <use xlink:href="#DejaVuSans-6c" x="124.560547"/>
       <use xlink:href="#DejaVuSans-65" x="152.34375"/>
       <use xlink:href="#DejaVuSans-79" x="213.867188"/>
       <use xlink:href="#DejaVuSans-6e" x="273.046875"/>
       <use xlink:href="#DejaVuSans-65" x="336.425781"/>
       <use xlink:href="#DejaVuSans-73" x="397.949219"/>
       <use xlink:href="#DejaVuSans-73" x="450.048828"/>
       <use xlink:href="#DejaVuSans-5f" x="502.148438"/>
       <use xlink:href="#DejaVuSans-63" x="552.148438"/>
       <use xlink:href="#DejaVuSans-6f" x="607.128906"/>
       <use xlink:href="#DejaVuSans-6c" x="668.310547"/>
      </g>
     </g>
    </g>
    <g id="ytick_5">
     <g id="line2d_23">
      <g>
       <use xlink:href="#m2a170d5137" x="171.7" y="208.46" style="stroke: #000000; stroke-width: 0.8"/>
      </g>
     </g>
     <g id="text_15">
      <!-- horizontal_hole_clusteredness -->
      <g transform="translate(14.242188 212.259219) scale(0.1 -0.1)">
       <defs>
        <path id="DejaVuSans-7a" d="M 353 3500 
L 3084 3500 
L 3084 2975 
L 922 459 
L 3084 459 
L 3084 0 
L 275 0 
L 275 525 
L 2438 3041 
L 353 3041 
L 353 3500 
z
" transform="scale(0.015625)"/>
       </defs>
       <use xlink:href="#DejaVuSans-68"/>
       <use xlink:href="#DejaVuSans-6f" x="63.378906"/>
       <use xlink:href="#DejaVuSans-72" x="124.560547"/>
       <use xlink:href="#DejaVuSans-69" x="165.673828"/>
       <use xlink:href="#DejaVuSans-7a" x="193.457031"/>
       <use xlink:href="#DejaVuSans-6f" x="245.947266"/>
       <use xlink:href="#DejaVuSans-6e" x="307.128906"/>
       <use xlink:href="#DejaVuSans-74" x="370.507812"/>
       <use xlink:href="#DejaVuSans-61" x="409.716797"/>
       <use xlink:href="#DejaVuSans-6c" x="470.996094"/>
       <use xlink:href="#DejaVuSans-5f" x="498.779297"/>
       <use xlink:href="#DejaVuSans-68" x="548.779297"/>
       <use xlink:href="#DejaVuSans-6f" x="612.158203"/>
       <use xlink:href="#DejaVuSans-6c" x="673.339844"/>
       <use xlink:href="#DejaVuSans-65" x="701.123047"/>
       <use xlink:href="#DejaVuSans-5f" x="762.646484"/>
       <use xlink:href="#DejaVuSans-63" x="812.646484"/>
       <use xlink:href="#DejaVuSans-6c" x="867.626953"/>
       <use xlink:href="#DejaVuSans-75" x="895.410156"/>
       <use xlink:href="#DejaVuSans-73" x="958.789062"/>
       <use xlink:href="#DejaVuSans-74" x="1010.888672"/>
       <use xlink:href="#DejaVuSans-65" x="1050.097656"/>
       <use xlink:href="#DejaVuSans-72" x="1111.621094"/>
       <use xlink:href="#DejaVuSans-65" x="1150.484375"/>
       <use xlink:href="#DejaVuSans-64" x="1212.007812"/>
       <use xlink:href="#DejaVuSans-6e" x="1275.484375"/>
       <use xlink:href="#DejaVuSans-65" x="1338.863281"/>
       <use xlink:href="#DejaVuSans-73" x="1400.386719"/>
       <use xlink:href="#DejaVuSans-73" x="1452.486328"/>
      </g>
     </g>
    </g>
    <g id="ytick_6">
     <g id="line2d_24">
      <g>
       <use xlink:href="#m2a170d5137" x="171.7" y="168.108889" style="stroke: #000000; stroke-width: 0.8"/>
      </g>
     </g>
     <g id="text_16">
      <!-- horizontal_hole_edge_distance -->
      <g transform="translate(11.059375 171.908108) scale(0.1 -0.1)">
       <use xlink:href="#DejaVuSans-68"/>
       <use xlink:href="#DejaVuSans-6f" x="63.378906"/>
       <use xlink:href="#DejaVuSans-72" x="124.560547"/>
       <use xlink:href="#DejaVuSans-69" x="165.673828"/>
       <use xlink:href="#DejaVuSans-7a" x="193.457031"/>
       <use xlink:href="#DejaVuSans-6f" x="245.947266"/>
       <use xlink:href="#DejaVuSans-6e" x="307.128906"/>
       <use xlink:href="#DejaVuSans-74" x="370.507812"/>
       <use xlink:href="#DejaVuSans-61" x="409.716797"/>
       <use xlink:href="#DejaVuSans-6c" x="470.996094"/>
       <use xlink:href="#DejaVuSans-5f" x="498.779297"/>
       <use xlink:href="#DejaVuSans-68" x="548.779297"/>
       <use xlink:href="#DejaVuSans-6f" x="612.158203"/>
       <use xlink:href="#DejaVuSans-6c" x="673.339844"/>
       <use xlink:href="#DejaVuSans-65" x="701.123047"/>
       <use xlink:href="#DejaVuSans-5f" x="762.646484"/>
       <use xlink:href="#DejaVuSans-65" x="812.646484"/>
       <use xlink:href="#DejaVuSans-64" x="874.169922"/>
       <use xlink:href="#DejaVuSans-67" x="937.646484"/>
       <use xlink:href="#DejaVuSans-65" x="1001.123047"/>
       <use xlink:href="#DejaVuSans-5f" x="1062.646484"/>
       <use xlink:href="#DejaVuSans-64" x="1112.646484"/>
       <use xlink:href="#DejaVuSans-69" x="1176.123047"/>
       <use xlink:href="#DejaVuSans-73" x="1203.90625"/>
       <use xlink:href="#DejaVuSans-74" x="1256.005859"/>
       <use xlink:href="#DejaVuSans-61" x="1295.214844"/>
       <use xlink:href="#DejaVuSans-6e" x="1356.494141"/>
       <use xlink:href="#DejaVuSans-63" x="1419.873047"/>
       <use xlink:href="#DejaVuSans-65" x="1474.853516"/>
      </g>
     </g>
    </g>
    <g id="ytick_7">
     <g id="line2d_25">
      <g>
       <use xlink:href="#m2a170d5137" x="171.7" y="127.757778" style="stroke: #000000; stroke-width: 0.8"/>
      </g>
     </g>
     <g id="text_17">
      <!-- total_holeyness -->
      <g transform="translate(86.61875 131.556997) scale(0.1 -0.1)">
       <use xlink:href="#DejaVuSans-74"/>
       <use xlink:href="#DejaVuSans-6f" x="39.208984"/>
       <use xlink:href="#DejaVuSans-74" x="100.390625"/>
       <use xlink:href="#DejaVuSans-61" x="139.599609"/>
       <use xlink:href="#DejaVuSans-6c" x="200.878906"/>
       <use xlink:href="#DejaVuSans-5f" x="228.662109"/>
       <use xlink:href="#DejaVuSans-68" x="278.662109"/>
       <use xlink:href="#DejaVuSans-6f" x="342.041016"/>
       <use xlink:href="#DejaVuSans-6c" x="403.222656"/>
       <use xlink:href="#DejaVuSans-65" x="431.005859"/>
       <use xlink:href="#DejaVuSans-79" x="492.529297"/>
       <use xlink:href="#DejaVuSans-6e" x="551.708984"/>
       <use xlink:href="#DejaVuSans-65" x="615.087891"/>
       <use xlink:href="#DejaVuSans-73" x="676.611328"/>
       <use xlink:href="#DejaVuSans-73" x="728.710938"/>
      </g>
     </g>
    </g>
    <g id="ytick_8">
     <g id="line2d_26">
      <g>
       <use xlink:href="#m2a170d5137" x="171.7" y="87.406667" style="stroke: #000000; stroke-width: 0.8"/>
      </g>
     </g>
     <g id="text_18">
      <!-- vertical_hole_clusteredness -->
      <g transform="translate(26.832813 91.205885) scale(0.1 -0.1)">
       <use xlink:href="#DejaVuSans-76"/>
       <use xlink:href="#DejaVuSans-65" x="59.179688"/>
       <use xlink:href="#DejaVuSans-72" x="120.703125"/>
       <use xlink:href="#DejaVuSans-74" x="161.816406"/>
       <use xlink:href="#DejaVuSans-69" x="201.025391"/>
       <use xlink:href="#DejaVuSans-63" x="228.808594"/>
       <use xlink:href="#DejaVuSans-61" x="283.789062"/>
       <use xlink:href="#DejaVuSans-6c" x="345.068359"/>
       <use xlink:href="#DejaVuSans-5f" x="372.851562"/>
       <use xlink:href="#DejaVuSans-68" x="422.851562"/>
       <use xlink:href="#DejaVuSans-6f" x="486.230469"/>
       <use xlink:href="#DejaVuSans-6c" x="547.412109"/>
       <use xlink:href="#DejaVuSans-65" x="575.195312"/>
       <use xlink:href="#DejaVuSans-5f" x="636.71875"/>
       <use xlink:href="#DejaVuSans-63" x="686.71875"/>
       <use xlink:href="#DejaVuSans-6c" x="741.699219"/>
       <use xlink:href="#DejaVuSans-75" x="769.482422"/>
       <use xlink:href="#DejaVuSans-73" x="832.861328"/>
       <use xlink:href="#DejaVuSans-74" x="884.960938"/>
       <use xlink:href="#DejaVuSans-65" x="924.169922"/>
       <use xlink:href="#DejaVuSans-72" x="985.693359"/>
       <use xlink:href="#DejaVuSans-65" x="1024.556641"/>
       <use xlink:href="#DejaVuSans-64" x="1086.080078"/>
       <use xlink:href="#DejaVuSans-6e" x="1149.556641"/>
       <use xlink:href="#DejaVuSans-65" x="1212.935547"/>
       <use xlink:href="#DejaVuSans-73" x="1274.458984"/>
       <use xlink:href="#DejaVuSans-73" x="1326.558594"/>
      </g>
     </g>
    </g>
    <g id="ytick_9">
     <g id="line2d_27">
      <g>
       <use xlink:href="#m2a170d5137" x="171.7" y="47.055556" style="stroke: #000000; stroke-width: 0.8"/>
      </g>
     </g>
     <g id="text_19">
      <!-- vertical_hole_depth -->
      <g transform="translate(66.91875 50.854774) scale(0.1 -0.1)">
       <use xlink:href="#DejaVuSans-76"/>
       <use xlink:href="#DejaVuSans-65" x="59.179688"/>
       <use xlink:href="#DejaVuSans-72" x="120.703125"/>
       <use xlink:href="#DejaVuSans-74" x="161.816406"/>
       <use xlink:href="#DejaVuSans-69" x="201.025391"/>
       <use xlink:href="#DejaVuSans-63" x="228.808594"/>
       <use xlink:href="#DejaVuSans-61" x="283.789062"/>
       <use xlink:href="#DejaVuSans-6c" x="345.068359"/>
       <use xlink:href="#DejaVuSans-5f" x="372.851562"/>
       <use xlink:href="#DejaVuSans-68" x="422.851562"/>
       <use xlink:href="#DejaVuSans-6f" x="486.230469"/>
       <use xlink:href="#DejaVuSans-6c" x="547.412109"/>
       <use xlink:href="#DejaVuSans-65" x="575.195312"/>
       <use xlink:href="#DejaVuSans-5f" x="636.71875"/>
       <use xlink:href="#DejaVuSans-64" x="686.71875"/>
       <use xlink:href="#DejaVuSans-65" x="750.195312"/>
       <use xlink:href="#DejaVuSans-70" x="811.71875"/>
       <use xlink:href="#DejaVuSans-74" x="875.195312"/>
       <use xlink:href="#DejaVuSans-68" x="914.404297"/>
      </g>
     </g>
    </g>
   </g>
   <g id="patch_3">
    <path d="M 521.79088 379.952222 
L 521.79088 359.776667 
L 628.136764 359.776667 
L 628.136764 379.952222 
L 521.79088 379.952222 
z
" clip-path="url(#p7d53cf1326)" style="fill: #1f77b4; stroke: #000000; stroke-linejoin: miter"/>
   </g>
   <g id="line2d_28">
    <path d="M 521.79088 369.864444 
L 405.512529 369.864444 
" clip-path="url(#p7d53cf1326)" style="fill: none; stroke: #000000; stroke-linecap: square"/>
   </g>
   <g id="line2d_29">
    <path d="M 628.136764 369.864444 
L 691.841545 369.864444 
" clip-path="url(#p7d53cf1326)" style="fill: none; stroke: #000000; stroke-linecap: square"/>
   </g>
   <g id="line2d_30">
    <path d="M 405.512529 374.908333 
L 405.512529 364.820556 
" clip-path="url(#p7d53cf1326)" style="fill: none; stroke: #000000; stroke-linecap: square"/>
   </g>
   <g id="line2d_31">
    <path d="M 691.841545 374.908333 
L 691.841545 364.820556 
" clip-path="url(#p7d53cf1326)" style="fill: none; stroke: #000000; stroke-linecap: square"/>
   </g>
   <g id="line2d_32"/>
   <g id="patch_4">
    <path d="M 531.152514 339.601111 
L 531.152514 319.425556 
L 767.134203 319.425556 
L 767.134203 339.601111 
L 531.152514 339.601111 
z
" clip-path="url(#p7d53cf1326)" style="fill: #1f77b4; stroke: #000000; stroke-linejoin: miter"/>
   </g>
   <g id="line2d_33">
    <path d="M 531.152514 329.513333 
L 458.714013 329.513333 
" clip-path="url(#p7d53cf1326)" style="fill: none; stroke: #000000; stroke-linecap: square"/>
   </g>
   <g id="line2d_34">
    <path d="M 767.134203 329.513333 
L 1097.131818 329.513333 
" clip-path="url(#p7d53cf1326)" style="fill: none; stroke: #000000; stroke-linecap: square"/>
   </g>
   <g id="line2d_35">
    <path d="M 458.714013 334.557222 
L 458.714013 324.469444 
" clip-path="url(#p7d53cf1326)" style="fill: none; stroke: #000000; stroke-linecap: square"/>
   </g>
   <g id="line2d_36">
    <path d="M 1097.131818 334.557222 
L 1097.131818 324.469444 
" clip-path="url(#p7d53cf1326)" style="fill: none; stroke: #000000; stroke-linecap: square"/>
   </g>
   <g id="line2d_37"/>
   <g id="patch_5">
    <path d="M 424.235798 299.25 
L 424.235798 279.074444 
L 567.343223 279.074444 
L 567.343223 299.25 
L 424.235798 299.25 
z
" clip-path="url(#p7d53cf1326)" style="fill: #1f77b4; stroke: #000000; stroke-linejoin: miter"/>
   </g>
   <g id="line2d_38">
    <path d="M 424.235798 289.162222 
L 380.624282 289.162222 
" clip-path="url(#p7d53cf1326)" style="fill: none; stroke: #000000; stroke-linecap: square"/>
   </g>
   <g id="line2d_39">
    <path d="M 567.343223 289.162222 
L 697.778191 289.162222 
" clip-path="url(#p7d53cf1326)" style="fill: none; stroke: #000000; stroke-linecap: square"/>
   </g>
   <g id="line2d_40">
    <path d="M 380.624282 294.206111 
L 380.624282 284.118333 
" clip-path="url(#p7d53cf1326)" style="fill: none; stroke: #000000; stroke-linecap: square"/>
   </g>
   <g id="line2d_41">
    <path d="M 697.778191 294.206111 
L 697.778191 284.118333 
" clip-path="url(#p7d53cf1326)" style="fill: none; stroke: #000000; stroke-linecap: square"/>
   </g>
   <g id="line2d_42"/>
   <g id="patch_6">
    <path d="M 456.202355 258.898889 
L 456.202355 238.723333 
L 585.495661 238.723333 
L 585.495661 258.898889 
L 456.202355 258.898889 
z
" clip-path="url(#p7d53cf1326)" style="fill: #1f77b4; stroke: #000000; stroke-linejoin: miter"/>
   </g>
   <g id="line2d_43">
    <path d="M 456.202355 248.811111 
L 396.150895 248.811111 
" clip-path="url(#p7d53cf1326)" style="fill: none; stroke: #000000; stroke-linecap: square"/>
   </g>
   <g id="line2d_44">
    <path d="M 585.495661 248.811111 
L 672.889943 248.811111 
" clip-path="url(#p7d53cf1326)" style="fill: none; stroke: #000000; stroke-linecap: square"/>
   </g>
   <g id="line2d_45">
    <path d="M 396.150895 253.855 
L 396.150895 243.767222 
" clip-path="url(#p7d53cf1326)" style="fill: none; stroke: #000000; stroke-linecap: square"/>
   </g>
   <g id="line2d_46">
    <path d="M 672.889943 253.855 
L 672.889943 243.767222 
" clip-path="url(#p7d53cf1326)" style="fill: none; stroke: #000000; stroke-linecap: square"/>
   </g>
   <g id="line2d_47"/>
   <g id="patch_7">
    <path d="M 456.944436 218.547778 
L 456.944436 198.372222 
L 538.059574 198.372222 
L 538.059574 218.547778 
L 456.944436 218.547778 
z
" clip-path="url(#p7d53cf1326)" style="fill: #1f77b4; stroke: #000000; stroke-linejoin: miter"/>
   </g>
   <g id="line2d_48">
    <path d="M 456.944436 208.46 
L 416.244159 208.46 
" clip-path="url(#p7d53cf1326)" style="fill: none; stroke: #000000; stroke-linecap: square"/>
   </g>
   <g id="line2d_49">
    <path d="M 538.059574 208.46 
L 572.423622 208.46 
" clip-path="url(#p7d53cf1326)" style="fill: none; stroke: #000000; stroke-linecap: square"/>
   </g>
   <g id="line2d_50">
    <path d="M 416.244159 213.503889 
L 416.244159 203.416111 
" clip-path="url(#p7d53cf1326)" style="fill: none; stroke: #000000; stroke-linecap: square"/>
   </g>
   <g id="line2d_51">
    <path d="M 572.423622 213.503889 
L 572.423622 203.416111 
" clip-path="url(#p7d53cf1326)" style="fill: none; stroke: #000000; stroke-linecap: square"/>
   </g>
   <g id="line2d_52">
    <defs>
     <path id="m0320920d54" d="M 0 3 
C 0.795609 3 1.55874 2.683901 2.12132 2.12132 
C 2.683901 1.55874 3 0.795609 3 0 
C 3 -0.795609 2.683901 -1.55874 2.12132 -2.12132 
C 1.55874 -2.683901 0.795609 -3 0 -3 
C -0.795609 -3 -1.55874 -2.683901 -2.12132 -2.12132 
C -2.683901 -1.55874 -3 -0.795609 -3 0 
C -3 0.795609 -2.683901 1.55874 -2.12132 2.12132 
C -1.55874 2.683901 -0.795609 3 0 3 
z
" style="stroke: #000000"/>
    </defs>
    <g clip-path="url(#p7d53cf1326)">
     <use xlink:href="#m0320920d54" x="314.636175" y="208.46" style="fill-opacity: 0; stroke: #000000"/>
    </g>
   </g>
   <g id="patch_8">
    <path d="M 458.257348 178.196667 
L 458.257348 158.021111 
L 604.390179 158.021111 
L 604.390179 178.196667 
L 458.257348 178.196667 
z
" clip-path="url(#p7d53cf1326)" style="fill: #1f77b4; stroke: #000000; stroke-linejoin: miter"/>
   </g>
   <g id="line2d_53">
    <path d="M 458.257348 168.108889 
L 416.244159 168.108889 
" clip-path="url(#p7d53cf1326)" style="fill: none; stroke: #000000; stroke-linecap: square"/>
   </g>
   <g id="line2d_54">
    <path d="M 604.390179 168.108889 
L 804.637824 168.108889 
" clip-path="url(#p7d53cf1326)" style="fill: none; stroke: #000000; stroke-linecap: square"/>
   </g>
   <g id="line2d_55">
    <path d="M 416.244159 173.152778 
L 416.244159 163.065 
" clip-path="url(#p7d53cf1326)" style="fill: none; stroke: #000000; stroke-linecap: square"/>
   </g>
   <g id="line2d_56">
    <path d="M 804.637824 173.152778 
L 804.637824 163.065 
" clip-path="url(#p7d53cf1326)" style="fill: none; stroke: #000000; stroke-linecap: square"/>
   </g>
   <g id="line2d_57">
    <g clip-path="url(#p7d53cf1326)">
     <use xlink:href="#m0320920d54" x="215.768182" y="168.108889" style="fill-opacity: 0; stroke: #000000"/>
    </g>
   </g>
   <g id="patch_9">
    <path d="M 509.175506 137.845556 
L 509.175506 117.67 
L 509.175506 117.67 
L 509.175506 137.845556 
L 509.175506 137.845556 
z
" clip-path="url(#p7d53cf1326)" style="fill: #1f77b4; stroke: #000000; stroke-linejoin: miter"/>
   </g>
   <g id="line2d_58">
    <path d="M 509.175506 127.757778 
L 509.175506 127.757778 
" clip-path="url(#p7d53cf1326)" style="fill: none; stroke: #000000; stroke-linecap: square"/>
   </g>
   <g id="line2d_59">
    <path d="M 509.175506 127.757778 
L 509.175506 127.757778 
" clip-path="url(#p7d53cf1326)" style="fill: none; stroke: #000000; stroke-linecap: square"/>
   </g>
   <g id="line2d_60">
    <path d="M 509.175506 132.801667 
L 509.175506 122.713889 
" clip-path="url(#p7d53cf1326)" style="fill: none; stroke: #000000; stroke-linecap: square"/>
   </g>
   <g id="line2d_61">
    <path d="M 509.175506 132.801667 
L 509.175506 122.713889 
" clip-path="url(#p7d53cf1326)" style="fill: none; stroke: #000000; stroke-linecap: square"/>
   </g>
   <g id="line2d_62"/>
   <g id="patch_10">
    <path d="M 481.775601 97.494444 
L 481.775601 77.318889 
L 591.203974 77.318889 
L 591.203974 97.494444 
L 481.775601 97.494444 
z
" clip-path="url(#p7d53cf1326)" style="fill: #1f77b4; stroke: #000000; stroke-linejoin: miter"/>
   </g>
   <g id="line2d_63">
    <path d="M 481.775601 87.406667 
L 379.939284 87.406667 
" clip-path="url(#p7d53cf1326)" style="fill: none; stroke: #000000; stroke-linecap: square"/>
   </g>
   <g id="line2d_64">
    <path d="M 591.203974 87.406667 
L 681.56658 87.406667 
" clip-path="url(#p7d53cf1326)" style="fill: none; stroke: #000000; stroke-linecap: square"/>
   </g>
   <g id="line2d_65">
    <path d="M 379.939284 92.450556 
L 379.939284 82.362778 
" clip-path="url(#p7d53cf1326)" style="fill: none; stroke: #000000; stroke-linecap: square"/>
   </g>
   <g id="line2d_66">
    <path d="M 681.56658 92.450556 
L 681.56658 82.362778 
" clip-path="url(#p7d53cf1326)" style="fill: none; stroke: #000000; stroke-linecap: square"/>
   </g>
   <g id="line2d_67"/>
   <g id="patch_11">
    <path d="M 553.300771 57.143333 
L 553.300771 36.967778 
L 625.225524 36.967778 
L 625.225524 57.143333 
L 553.300771 57.143333 
z
" clip-path="url(#p7d53cf1326)" style="fill: #1f77b4; stroke: #000000; stroke-linejoin: miter"/>
   </g>
   <g id="line2d_68">
    <path d="M 553.300771 47.055556 
L 517.395478 47.055556 
" clip-path="url(#p7d53cf1326)" style="fill: none; stroke: #000000; stroke-linecap: square"/>
   </g>
   <g id="line2d_69">
    <path d="M 625.225524 47.055556 
L 694.809868 47.055556 
" clip-path="url(#p7d53cf1326)" style="fill: none; stroke: #000000; stroke-linecap: square"/>
   </g>
   <g id="line2d_70">
    <path d="M 517.395478 52.099444 
L 517.395478 42.011667 
" clip-path="url(#p7d53cf1326)" style="fill: none; stroke: #000000; stroke-linecap: square"/>
   </g>
   <g id="line2d_71">
    <path d="M 694.809868 52.099444 
L 694.809868 42.011667 
" clip-path="url(#p7d53cf1326)" style="fill: none; stroke: #000000; stroke-linecap: square"/>
   </g>
   <g id="line2d_72">
    <g clip-path="url(#p7d53cf1326)">
     <use xlink:href="#m0320920d54" x="830.211069" y="47.055556" style="fill-opacity: 0; stroke: #000000"/>
    </g>
   </g>
   <g id="line2d_73">
    <path d="M 416.244159 390.04 
L 416.244159 26.88 
" clip-path="url(#p7d53cf1326)" style="fill: none; stroke: #444444; stroke-width: 0.9; stroke-linecap: square"/>
   </g>
   <g id="line2d_74">
    <path d="M 583.726083 379.952222 
L 583.726083 359.776667 
" clip-path="url(#p7d53cf1326)" style="fill: none; stroke: #ff7f0e"/>
   </g>
   <g id="line2d_75">
    <path d="M 606.216839 339.601111 
L 606.216839 319.425556 
" clip-path="url(#p7d53cf1326)" style="fill: none; stroke: #ff7f0e"/>
   </g>
   <g id="line2d_76">
    <path d="M 504.494689 299.25 
L 504.494689 279.074444 
" clip-path="url(#p7d53cf1326)" style="fill: none; stroke: #ff7f0e"/>
   </g>
   <g id="line2d_77">
    <path d="M 526.52878 258.898889 
L 526.52878 238.723333 
" clip-path="url(#p7d53cf1326)" style="fill: none; stroke: #ff7f0e"/>
   </g>
   <g id="line2d_78">
    <path d="M 493.877226 218.547778 
L 493.877226 198.372222 
" clip-path="url(#p7d53cf1326)" style="fill: none; stroke: #ff7f0e"/>
   </g>
   <g id="line2d_79">
    <path d="M 528.012942 178.196667 
L 528.012942 158.021111 
" clip-path="url(#p7d53cf1326)" style="fill: none; stroke: #ff7f0e"/>
   </g>
   <g id="line2d_80">
    <path d="M 509.175506 137.845556 
L 509.175506 117.67 
" clip-path="url(#p7d53cf1326)" style="fill: none; stroke: #ff7f0e"/>
   </g>
   <g id="line2d_81">
    <path d="M 505.636352 97.494444 
L 505.636352 77.318889 
" clip-path="url(#p7d53cf1326)" style="fill: none; stroke: #ff7f0e"/>
   </g>
   <g id="line2d_82">
    <path d="M 597.083537 57.143333 
L 597.083537 36.967778 
" clip-path="url(#p7d53cf1326)" style="fill: none; stroke: #ff7f0e"/>
   </g>
   <g id="patch_12">
    <path d="M 171.7 390.04 
L 171.7 26.88 
" style="fill: none; stroke: #000000; stroke-width: 0.8; stroke-linejoin: miter; stroke-linecap: square"/>
   </g>
   <g id="patch_13">
    <path d="M 1141.2 390.04 
L 1141.2 26.88 
" style="fill: none; stroke: #000000; stroke-width: 0.8; stroke-linejoin: miter; stroke-linecap: square"/>
   </g>
   <g id="patch_14">
    <path d="M 171.7 390.04 
L 1141.2 390.04 
" style="fill: none; stroke: #000000; stroke-width: 0.8; stroke-linejoin: miter; stroke-linecap: square"/>
   </g>
   <g id="patch_15">
    <path d="M 171.7 26.88 
L 1141.2 26.88 
" style="fill: none; stroke: #000000; stroke-width: 0.8; stroke-linejoin: miter; stroke-linecap: square"/>
   </g>
   <g id="text_20">
    <!-- Score Drop Distribution By Feature Family -->
    <g transform="translate(531.033125 20.88) scale(0.12 -0.12)">
     <defs>
      <path id="DejaVuSans-53" d="M 3425 4513 
L 3425 3897 
Q 3066 4069 2747 4153 
Q 2428 4238 2131 4238 
Q 1616 4238 1336 4038 
Q 1056 3838 1056 3469 
Q 1056 3159 1242 3001 
Q 1428 2844 1947 2747 
L 2328 2669 
Q 3034 2534 3370 2195 
Q 3706 1856 3706 1288 
Q 3706 609 3251 259 
Q 2797 -91 1919 -91 
Q 1588 -91 1214 -16 
Q 841 59 441 206 
L 441 856 
Q 825 641 1194 531 
Q 1563 422 1919 422 
Q 2459 422 2753 634 
Q 3047 847 3047 1241 
Q 3047 1584 2836 1778 
Q 2625 1972 2144 2069 
L 1759 2144 
Q 1053 2284 737 2584 
Q 422 2884 422 3419 
Q 422 4038 858 4394 
Q 1294 4750 2059 4750 
Q 2388 4750 2728 4690 
Q 3069 4631 3425 4513 
z
" transform="scale(0.015625)"/>
      <path id="DejaVuSans-44" d="M 1259 4147 
L 1259 519 
L 2022 519 
Q 2988 519 3436 956 
Q 3884 1394 3884 2338 
Q 3884 3275 3436 3711 
Q 2988 4147 2022 4147 
L 1259 4147 
z
M 628 4666 
L 1925 4666 
Q 3281 4666 3915 4102 
Q 4550 3538 4550 2338 
Q 4550 1131 3912 565 
Q 3275 0 1925 0 
L 628 0 
L 628 4666 
z
" transform="scale(0.015625)"/>
      <path id="DejaVuSans-42" d="M 1259 2228 
L 1259 519 
L 2272 519 
Q 2781 519 3026 730 
Q 3272 941 3272 1375 
Q 3272 1813 3026 2020 
Q 2781 2228 2272 2228 
L 1259 2228 
z
M 1259 4147 
L 1259 2741 
L 2194 2741 
Q 2656 2741 2882 2914 
Q 3109 3088 3109 3444 
Q 3109 3797 2882 3972 
Q 2656 4147 2194 4147 
L 1259 4147 
z
M 628 4666 
L 2241 4666 
Q 2963 4666 3353 4366 
Q 3744 4066 3744 3513 
Q 3744 3084 3544 2831 
Q 3344 2578 2956 2516 
Q 3422 2416 3680 2098 
Q 3938 1781 3938 1306 
Q 3938 681 3513 340 
Q 3088 0 2303 0 
L 628 0 
L 628 4666 
z
" transform="scale(0.015625)"/>
      <path id="DejaVuSans-46" d="M 628 4666 
L 3309 4666 
L 3309 4134 
L 1259 4134 
L 1259 2759 
L 3109 2759 
L 3109 2228 
L 1259 2228 
L 1259 0 
L 628 0 
L 628 4666 
z
" transform="scale(0.015625)"/>
     </defs>
     <use xlink:href="#DejaVuSans-53"/>
     <use xlink:href="#DejaVuSans-63" x="63.476562"/>
     <use xlink:href="#DejaVuSans-6f" x="118.457031"/>
     <use xlink:href="#DejaVuSans-72" x="179.638672"/>
     <use xlink:href="#DejaVuSans-65" x="218.501953"/>
     <use xlink:href="#DejaVuSans-20" x="280.025391"/>
     <use xlink:href="#DejaVuSans-44" x="311.8125"/>
     <use xlink:href="#DejaVuSans-72" x="388.814453"/>
     <use xlink:href="#DejaVuSans-6f" x="427.677734"/>
     <use xlink:href="#DejaVuSans-70" x="488.859375"/>
     <use xlink:href="#DejaVuSans-20" x="552.335938"/>
     <use xlink:href="#DejaVuSans-44" x="584.123047"/>
     <use xlink:href="#DejaVuSans-69" x="661.125"/>
     <use xlink:href="#DejaVuSans-73" x="688.908203"/>
     <use xlink:href="#DejaVuSans-74" x="741.007812"/>
     <use xlink:href="#DejaVuSans-72" x="780.216797"/>
     <use xlink:href="#DejaVuSans-69" x="821.330078"/>
     <use xlink:href="#DejaVuSans-62" x="849.113281"/>
     <use xlink:href="#DejaVuSans-75" x="912.589844"/>
     <use xlink:href="#DejaVuSans-74" x="975.96875"/>
     <use xlink:href="#DejaVuSans-69" x="1015.177734"/>
     <use xlink:href="#DejaVuSans-6f" x="1042.960938"/>
     <use xlink:href="#DejaVuSans-6e" x="1104.142578"/>
     <use xlink:href="#DejaVuSans-20" x="1167.521484"/>
     <use xlink:href="#DejaVuSans-42" x="1199.308594"/>
     <use xlink:href="#DejaVuSans-79" x="1267.912109"/>
     <use xlink:href="#DejaVuSans-20" x="1327.091797"/>
     <use xlink:href="#DejaVuSans-46" x="1358.878906"/>
     <use xlink:href="#DejaVuSans-65" x="1410.898438"/>
     <use xlink:href="#DejaVuSans-61" x="1472.421875"/>
     <use xlink:href="#DejaVuSans-74" x="1533.701172"/>
     <use xlink:href="#DejaVuSans-75" x="1572.910156"/>
     <use xlink:href="#DejaVuSans-72" x="1636.289062"/>
     <use xlink:href="#DejaVuSans-65" x="1675.152344"/>
     <use xlink:href="#DejaVuSans-20" x="1736.675781"/>
     <use xlink:href="#DejaVuSans-46" x="1768.462891"/>
     <use xlink:href="#DejaVuSans-61" x="1816.857422"/>
     <use xlink:href="#DejaVuSans-6d" x="1878.136719"/>
     <use xlink:href="#DejaVuSans-69" x="1975.548828"/>
     <use xlink:href="#DejaVuSans-6c" x="2003.332031"/>
     <use xlink:href="#DejaVuSans-79" x="2031.115234"/>
    </g>
   </g>
  </g>
 </g>
 <defs>
  <clipPath id="p7d53cf1326">
   <rect x="171.7" y="26.88" width="969.5" height="363.16"/>
  </clipPath>
 </defs>
</svg>
